Coordinates
version=1
nRows=23
nColumns=38
inDegrees=no

Units are S.I. units (second, meters, Newtons, ...)
If the header above contains a line with 'inDegrees', this indicates whether rotational values are in degrees (yes) or radians (no).

endheader
time	pelvis_tilt	pelvis_list	pelvis_rotation	pelvis_tx	pelvis_ty	pelvis_tz	hip_flexion_r	hip_adduction_r	hip_rotation_r	knee_angle_r	ankle_angle_r	subtalar_angle_r	mtp_angle_r	hip_flexion_l	hip_adduction_l	hip_rotation_l	knee_angle_l	ankle_angle_l	subtalar_angle_l	mtp_angle_l	lumbar_extension	lumbar_bending	lumbar_rotation	arm_flex_r	arm_add_r	arm_rot_r	elbow_flex_r	pro_sup_r	wrist_flex_r	wrist_dev_r	arm_flex_l	arm_add_l	arm_rot_l	elbow_flex_l	pro_sup_l	wrist_flex_l	wrist_dev_l
1.29	1.35192	1.50314	-2.95171	0.881087	-0.392893	1.03977	0.52379	-0.121666	-0.0884022	0.612044	-0.0991521	0	0	-0.138343	0.108951	-0.336169	0.326961	-0.0995869	0	0	-0.0388904	-0.0440802	-0.0584327	-0.290558	-0.243081	-0.163394	0.498524	0.278241	0	0	0.247697	-0.865521	1.05564	0.778125	0.802647	0	0
1.3	1.4889	1.50448	-3.08336	0.880864	-0.402063	1.03784	0.532479	-0.123325	-0.0966722	0.571215	-0.0949796	0	0	-0.136999	0.107477	-0.332599	0.329704	-0.094446	0	0	-0.0287586	-0.0429444	-0.0632989	-0.290993	-0.242459	-0.167584	0.500023	0.283012	0	0	0.260921	-0.868862	1.05732	0.781511	0.812928	0	0
1.31	1.60568	1.50494	3.0885	0.880525	-0.411372	1.03604	0.537904	-0.124446	-0.103745	0.532577	-0.0901709	0	0	-0.137193	0.105655	-0.32818	0.33298	-0.089426	0	0	-0.0203652	-0.0416348	-0.0681844	-0.291348	-0.2418	-0.171403	0.501501	0.28795	0	0	0.274241	-0.872073	1.06059	0.784854	0.823195	0	0
1.32	1.70367	1.50507	2.99627	0.880137	-0.420735	1.03437	0.540837	-0.125157	-0.109854	0.497237	-0.084709	0	0	-0.138734	0.103157	-0.323431	0.336463	-0.0847987	0	0	-0.0136815	-0.0398936	-0.0732547	-0.291413	-0.241348	-0.174462	0.502684	0.293409	0	0	0.286902	-0.874651	1.0639	0.787888	0.831331	0	0
1.33	1.79332	1.50511	2.91242	0.879728	-0.430134	1.03274	0.543339	-0.12539	-0.113911	0.46833	-0.0790368	0	0	-0.140782	0.100047	-0.318593	0.340274	-0.0803554	0	0	-0.00790395	-0.0375427	-0.0784407	-0.291196	-0.241123	-0.177301	0.503613	0.298873	0	0	0.298431	-0.876513	1.06698	0.790532	0.837442	0	0
1.34	1.87617	1.50532	2.83531	0.879262	-0.439604	1.03118	0.545241	-0.124688	-0.114949	0.446217	-0.0741629	0	0	-0.143144	0.0962342	-0.313378	0.344784	-0.0760677	0	0	-0.00289772	-0.0344552	-0.0836457	-0.290763	-0.240941	-0.18019	0.504335	0.303547	0	0	0.309168	-0.877821	1.07051	0.792903	0.843111	0	0
1.35	1.93826	1.50633	2.77879	0.878623	-0.449178	1.02983	0.54524	-0.122941	-0.114185	0.429991	-0.0714324	0	0	-0.147706	0.0915437	-0.308756	0.348218	-0.0728484	0	0	-1.91708e-05	-0.0306518	-0.0885795	-0.290026	-0.24077	-0.181888	0.504755	0.307174	0	0	0.319381	-0.878735	1.07461	0.795005	0.846937	0	0
1.36	1.98244	1.50816	2.73959	0.877833	-0.458861	1.02866	0.544156	-0.120358	-0.111378	0.422375	-0.0702077	0	0	-0.154143	0.0861658	-0.304675	0.351549	-0.0698547	0	0	0.00112918	-0.0262836	-0.0928569	-0.28902	-0.240551	-0.183603	0.504829	0.310374	0	0	0.328502	-0.878948	1.0783	0.796594	0.850149	0	0
1.37	2.01798	1.51033	2.70825	0.876934	-0.468662	1.02761	0.54255	-0.117084	-0.106608	0.422232	-0.0701612	0	0	-0.161384	0.080693	-0.301708	0.355068	-0.0674605	0	0	0.00135446	-0.0215709	-0.0961235	-0.288163	-0.240303	-0.186177	0.505065	0.312477	0	0	0.336812	-0.878428	1.08216	0.797713	0.853616	0	0
1.38	2.05495	1.51215	2.67454	0.875911	-0.478674	1.02659	0.54179	-0.113731	-0.101647	0.429654	-0.0708511	0	0	-0.168739	0.0756257	-0.300175	0.358494	-0.0658702	0	0	0.00171055	-0.0169977	-0.098128	-0.288156	-0.239992	-0.189618	0.506027	0.313954	0	0	0.343878	-0.877507	1.08591	0.798849	0.85767	0	0
1.39	2.09477	1.51319	2.63762	0.874804	-0.488822	1.02554	0.542264	-0.110935	-0.0983734	0.444617	-0.0721256	0	0	-0.175516	0.0711673	-0.298998	0.362464	-0.064671	0	0	0.0023751	-0.0129639	-0.0996907	-0.28884	-0.239447	-0.194179	0.507791	0.314731	0	0	0.349145	-0.87665	1.08844	0.800533	0.86162	0	0
1.4	2.1246	1.51396	2.61184	0.873728	-0.498878	1.02452	0.54232	-0.109275	-0.098175	0.46423	-0.074194	0	0	-0.181863	0.066904	-0.295956	0.367928	-0.0636544	0	0	0.00189625	-0.00941801	-0.102204	-0.289639	-0.23861	-0.199744	0.510554	0.314687	0	0	0.35381	-0.876096	1.09049	0.802896	0.865373	0	0
1.41	2.13357	1.51508	2.60783	0.872537	-0.508918	1.02366	0.539458	-0.107684	-0.0999917	0.484984	-0.0771965	0	0	-0.18939	0.0627113	-0.290954	0.372988	-0.0633771	0	0	-0.000194366	-0.00644025	-0.105712	-0.290399	-0.237343	-0.205736	0.514062	0.314304	0	0	0.357374	-0.876131	1.09213	0.805555	0.87043	0	0
1.42	2.19259	1.51336	2.54978	0.870871	-0.519779	1.02249	0.538424	-0.103328	-0.0972979	0.506169	-0.080462	0	0	-0.194271	0.0597235	-0.290503	0.376203	-0.0646611	0	0	0.00442641	-0.00449608	-0.105566	-0.293447	-0.23617	-0.211595	0.516366	0.314694	0	0	0.354759	-0.875593	1.09012	0.807856	0.876209	0	0
1.43	2.26075	1.51159	2.48276	0.869078	-0.53083	1.0213	0.537252	-0.0979706	-0.0953804	0.528135	-0.085254	0	0	-0.197858	0.0555864	-0.288992	0.381741	-0.0661887	0	0	0.0101874	-0.00198593	-0.106151	-0.296665	-0.235262	-0.216652	0.518218	0.316107	0	0	0.348659	-0.874726	1.08516	0.809679	0.881055	0	0
1.44	2.31751	1.51142	2.42809	0.867267	-0.541716	1.02041	0.535249	-0.0930277	-0.0968287	0.546329	-0.0933984	0	0	-0.20153	0.0497118	-0.284525	0.390554	-0.0676146	0	0	0.0136623	0.00179374	-0.108208	-0.298167	-0.234742	-0.221106	0.519002	0.317766	0	0	0.341306	-0.873133	1.07866	0.810334	0.8848	0	0
1.45	2.38319	1.51138	2.36251	0.86525	-0.552703	1.01983	0.53538	-0.0885774	-0.0984569	0.555728	-0.101764	0	0	-0.204909	0.0435555	-0.281191	0.399194	-0.0703175	0	0	0.0177753	0.0064636	-0.108713	-0.297904	-0.234891	-0.224804	0.516522	0.319471	0	0	0.332435	-0.869756	1.07201	0.808301	0.889778	0	0
1.46	2.46548	1.51145	2.27802	0.863125	-0.56398	1.01964	0.535537	-0.0822662	-0.0998895	0.55688	-0.108939	0	0	-0.207537	0.0366726	-0.280405	0.409036	-0.0747653	0	0	0.0230431	0.0127157	-0.107075	-0.296939	-0.236111	-0.227393	0.511394	0.32182	0	0	0.320476	-0.863686	1.06307	0.80345	0.893929	0	0
1.47	2.55435	1.51315	2.18646	0.861043	-0.575364	1.01996	0.532645	-0.0738199	-0.10222	0.556002	-0.120318	0	0	-0.210249	0.028051	-0.280522	0.422087	-0.0811775	0	0	0.0266658	0.0211118	-0.105336	-0.295542	-0.237901	-0.230251	0.505576	0.324269	0	0	0.30568	-0.855691	1.05085	0.797217	0.896572	0	0
1.48	2.63581	1.51663	2.1017	0.858927	-0.586712	1.02072	0.526406	-0.064696	-0.104132	0.559978	-0.138352	0	0	-0.213574	0.0188365	-0.280305	0.438641	-0.0884629	0	0	0.0269511	0.0304522	-0.103004	-0.294091	-0.240324	-0.231909	0.500764	0.326961	0	0	0.290852	-0.847411	1.0393	0.791386	0.897704	0	0
1.49	2.72919	1.51949	2.00346	0.856698	-0.597975	1.02165	0.51999	-0.0551378	-0.102667	0.567369	-0.155119	0	0	-0.21448	0.00987224	-0.279977	0.459167	-0.0966374	0	0	0.0267507	0.0401792	-0.0995054	-0.292908	-0.242781	-0.233957	0.497121	0.328381	0	0	0.275054	-0.839082	1.02783	0.786097	0.898978	0	0
1.5	2.82311	1.52072	1.90343	0.854274	-0.609301	1.02258	0.516411	-0.0464001	-0.0972909	0.580146	-0.162584	0	0	-0.212944	0.00191173	-0.280557	0.481697	-0.106109	0	0	0.0270542	0.0491881	-0.0949705	-0.292433	-0.244647	-0.237394	0.494429	0.327947	0	0	0.25726	-0.831052	1.01525	0.781737	0.899161	0	0
1.51	2.89529	1.51885	1.82284	0.851562	-0.620956	1.02337	0.516188	-0.0391191	-0.0871754	0.596414	-0.163617	0	0	-0.20777	-0.00383861	-0.282606	0.506319	-0.117355	0	0	0.0307596	0.0559977	-0.0880788	-0.294194	-0.24593	-0.242102	0.492599	0.325877	0	0	0.237009	-0.82301	1.00243	0.777611	0.898462	0	0
